<svg width="514" height="802" viewBox="0 0 514 802" fill="none" xmlns="http://www.w3.org/2000/svg">
<path d="M85.7381 565H167.91C180.271 709.487 167.381 828.765 158.182 1055H98.7704C89.1454 863.643 70.5904 756.357 85.7381 565Z" fill="#6A38F3"/>
<path d="M203.738 565H285.91C298.271 709.487 285.381 828.765 276.182 1055H216.77C207.145 863.643 188.59 756.357 203.738 565Z" fill="#6A38F3"/>
<mask id="path-3-inside-1_56_2414" fill="white">
<path d="M506.932 378.728C506.932 396.573 234.019 377.256 169.727 345.039L180.368 307.981C329.697 333.49 506.932 354.023 506.932 378.728Z"/>
</mask>
<path d="M169.727 345.039L48.7266 310.293L19.8765 410.761L113.329 457.589L169.727 345.039ZM180.368 307.981L201.566 183.888L90.4741 164.911L59.3682 273.235L180.368 307.981ZM169.727 345.039L113.329 457.589C147.76 474.842 193.697 484.432 227.827 490.407C266.91 497.25 310.792 502.534 351.543 506.074C392.035 509.592 432.361 511.643 464.208 511.41C479.255 511.299 497.085 510.676 513.408 508.274C520.348 507.253 535.442 504.792 551.85 498.025C559.781 494.754 576.096 487.273 592.235 472.147C609.902 455.589 632.822 423.973 632.822 378.728H506.932H381.042C381.042 334.599 403.428 304.026 420.059 288.439C435.161 274.286 449.935 267.705 455.852 265.265C462.984 262.323 468.605 260.88 471.186 260.27C474.091 259.584 476.081 259.276 476.751 259.177C477.898 259.008 473.904 259.552 462.361 259.637C441.028 259.793 409.107 258.347 373.335 255.239C337.821 252.154 301.421 247.683 271.25 242.4C236.127 236.251 223.84 231.344 226.125 232.489L169.727 345.039ZM506.932 378.728H632.822C632.822 337.043 613.642 307.117 599.335 290.889C585.555 275.259 570.865 265.77 562.117 260.703C544.468 250.482 526.087 244.236 513.738 240.458C487.204 232.339 454.155 225.592 422.092 219.783C361.352 208.778 267.811 195.205 201.566 183.888L180.368 307.981L159.17 432.073C242.254 446.266 311.994 455.714 377.204 467.529C408.115 473.13 428.708 477.743 440.073 481.22C446.673 483.239 443.305 482.85 435.932 478.58C432.322 476.489 421.585 469.999 410.474 457.396C398.837 444.196 381.042 417.326 381.042 378.728H506.932ZM180.368 307.981L59.3682 273.235L48.7266 310.293L169.727 345.039L290.727 379.785L301.368 342.727L180.368 307.981Z" fill="#C6E700" mask="url(#path-3-inside-1_56_2414)"/>
<path d="M185.29 397.351C185.524 398.265 185.759 399.195 185.992 400.143C191.539 422.717 195.157 447.65 197.758 473.211H169.9C172.613 452.894 176.382 431.658 181.42 411.597C182.687 406.549 183.983 401.801 185.29 397.351Z" stroke="black" stroke-width="186.587" stroke-linecap="round"/>
<ellipse cx="190.521" cy="159.61" rx="146.684" ry="121.394" fill="#C6E700"/>
<mask id="path-7-inside-2_56_2414" fill="white">
<path d="M183.842 296.806C169.316 294.827 166.592 283.444 167.046 278H202C202 285.094 198.368 298.786 183.842 296.806Z"/>
</mask>
<path d="M167.046 278V-264H-331.64L-373.08 232.961L167.046 278ZM183.842 296.806L110.656 833.843L183.842 296.806ZM202 278H744V-264H202V278ZM167.046 278L-373.08 232.961C-381.652 335.768 -362.601 463.468 -285.32 582.991C-193.649 724.769 -46.9187 812.369 110.656 833.843L183.842 296.806L257.028 -240.23C400.076 -220.735 538.181 -139.817 624.972 -5.58679C697.374 106.389 715.29 225.676 707.171 323.039L167.046 278ZM183.842 296.806L110.656 833.843C203.334 846.472 313.543 837.65 422.677 786.54C529.917 736.318 602.76 660.93 648.547 592.638C729.829 471.408 744 349.669 744 278H202H-340C-340 213.425 -327.645 102.078 -251.81 -11.0271C-208.747 -75.256 -139.536 -147.149 -37.0625 -195.139C67.3052 -244.017 171.614 -251.87 257.028 -240.23L183.842 296.806ZM202 278V-264H167.046V278V820H202V278Z" fill="#C6E700" mask="url(#path-7-inside-2_56_2414)"/>
<path d="M175.392 176.471C174.029 196.206 204.189 195.7 200.956 176.471" stroke="black" stroke-width="3.37205" stroke-linecap="round"/>
<path d="M231.547 173.099V148.37" stroke="black" stroke-width="10.1162" stroke-linecap="round"/>
<path d="M149.494 173.099V148.37" stroke="black" stroke-width="10.1162" stroke-linecap="round"/>
<mask id="path-12-inside-3_56_2414" fill="white">
<path d="M371.834 144.142C359.247 121.538 323.245 133.146 308.439 146.341L317.935 184.117C340.065 177.167 384.421 166.747 371.834 144.142Z"/>
</mask>
<path d="M308.439 146.341L227.135 55.1145L171.883 104.356L189.926 176.133L308.439 146.341ZM371.834 144.142L265.07 203.592L265.07 203.592L371.834 144.142ZM317.935 184.117L199.422 213.908L230.995 339.507L354.551 300.701L317.935 184.117ZM308.439 146.341L389.743 237.568C382.678 243.865 376.887 246.895 373.724 248.344C370.255 249.934 365.072 251.841 357.782 252.854C351.043 253.79 336.449 254.782 318.283 248.416C297.581 241.16 277.522 225.953 265.07 203.592L371.834 144.142L478.597 84.6927C436.866 9.74828 359.863 5.81934 324.155 10.7794C288.32 15.7572 253.029 32.037 227.135 55.1145L308.439 146.341ZM371.834 144.142L265.07 203.592C258.116 191.102 251.386 172.515 251.867 149.51C252.353 126.229 260.052 106.888 268.964 92.9893C277.275 80.0269 286.331 72.1405 291.365 68.2456C296.607 64.1894 300.684 62.0122 302.135 61.2682C304.619 59.9941 304.612 60.297 299.566 61.9429C291.248 64.6562 293.601 63.675 281.318 67.5327L317.935 184.117L354.551 300.701C355.713 300.337 389.17 291.298 413.671 278.732C425.478 272.676 454.204 256.878 474.704 224.905C486.35 206.742 495.622 182.824 496.212 154.619C496.796 126.69 488.699 102.833 478.597 84.6927L371.834 144.142ZM317.935 184.117L436.447 154.326L426.951 116.55L308.439 146.341L189.926 176.133L199.422 213.908L317.935 184.117Z" fill="#C6E700" mask="url(#path-12-inside-3_56_2414)"/>
<path d="M343.053 140.909L322.898 160.95L339.499 162.714" stroke="black" stroke-width="1.83758" stroke-linecap="round"/>
<mask id="path-15-inside-4_56_2414" fill="white">
<path d="M6.89277 144.142C19.4797 121.538 55.4818 133.146 70.2879 146.341L60.7919 184.117C38.662 177.167 -5.6942 166.747 6.89277 144.142Z"/>
</mask>
<path d="M70.2879 146.341L151.592 55.1145L206.843 104.356L188.8 176.133L70.2879 146.341ZM6.89277 144.142L113.656 203.592L113.656 203.592L6.89277 144.142ZM60.7919 184.117L179.304 213.908L147.731 339.507L24.1755 300.701L60.7919 184.117ZM70.2879 146.341L-11.0162 237.568C-3.95102 243.865 1.83994 246.895 5.00264 248.344C8.47133 249.934 13.655 251.841 20.945 252.854C27.6837 253.79 42.278 254.782 60.4433 248.416C81.1454 241.16 101.204 225.953 113.656 203.592L6.89277 144.142L-99.8708 84.6927C-58.1392 9.74828 18.8638 5.81934 54.5713 10.7794C90.4064 15.7572 125.698 32.037 151.592 55.1145L70.2879 146.341ZM6.89277 144.142L113.656 203.592C120.611 191.102 127.341 172.515 126.86 149.51C126.373 126.229 118.674 106.888 109.762 92.9893C101.451 80.0269 92.3954 72.1405 87.3617 68.2456C82.1197 64.1894 78.0424 62.0122 76.5917 61.2682C74.1077 59.9941 74.1148 60.297 79.1605 61.9429C87.4781 64.6562 85.1256 63.675 97.4083 67.5327L60.7919 184.117L24.1755 300.701C23.0138 300.337 -10.4438 291.298 -34.9447 278.732C-46.7512 272.676 -75.4773 256.878 -95.9777 224.905C-107.624 206.742 -116.896 182.824 -117.485 154.619C-118.069 126.69 -109.972 102.833 -99.8707 84.6927L6.89277 144.142ZM60.7919 184.117L-57.7204 154.326L-48.2244 116.55L70.2879 146.341L188.8 176.133L179.304 213.908L60.7919 184.117Z" fill="#C6E700" mask="url(#path-15-inside-4_56_2414)"/>
<path d="M35.6734 140.909L55.8287 160.95L39.2277 162.714" stroke="black" stroke-width="1.83758" stroke-linecap="round"/>
<path d="M262.921 59.008C214.233 56.3403 186.936 54.8286 138.254 53.9528" stroke="black" stroke-width="3.37205"/>
<mask id="path-19-inside-5_56_2414" fill="white">
<path d="M305 83C316.117 96.0235 327.63 107.97 334.5 121.5C256.1 136.3 222.667 82.8333 219 56.5H268C282.662 63.054 290.8 69.3155 305 83Z"/>
</mask>
<path d="M334.5 121.5L346.001 182.424L427.189 167.098L389.781 93.4291L334.5 121.5ZM305 83L352.155 42.7461L350.196 40.4506L348.022 38.3562L305 83ZM268 56.5L293.302 -0.102123L281.227 -5.5H268V56.5ZM219 56.5V-5.5H147.769L157.592 65.0504L219 56.5ZM334.5 121.5L389.781 93.4291C378.552 71.3139 359.337 51.1592 352.155 42.7461L305 83L257.845 123.254C272.898 140.888 276.708 144.626 279.219 149.571L334.5 121.5ZM305 83L348.022 38.3562C330.92 21.8752 316.882 10.4385 293.302 -0.102123L268 56.5L242.698 113.102C246.867 114.966 248.697 116.122 250.255 117.253C252.366 118.785 255.493 121.394 261.978 127.644L305 83ZM219 56.5L157.592 65.0504C161.656 94.231 179.266 128.397 210.129 152.947C243.674 179.63 290.157 192.966 346.001 182.424L334.5 121.5L322.999 60.576C311.001 62.8409 303.016 62.096 298.085 60.9365C293.182 59.7838 289.8 57.8755 287.321 55.9033C284.667 53.7926 282.66 51.279 281.327 48.9584C279.777 46.2622 280.067 45.5006 280.408 47.9496L219 56.5ZM219 56.5V118.5H268V56.5V-5.5H219V56.5Z" fill="black" mask="url(#path-19-inside-5_56_2414)"/>
<path d="M152.204 71C135.272 76.6899 124.619 82.3276 106.682 94.3965C137.166 91.3784 158.22 81.8012 172.486 71H152.204Z" stroke="black" stroke-width="62"/>
<mask id="path-22-inside-6_56_2414" fill="white">
<path d="M118 48.5C128 44.5 132.833 44.2615 135 45L94 66.5C97.2779 61.3338 108 52.5 118 48.5Z"/>
</mask>
<path d="M135 45L187.943 145.961L422.977 22.7113L171.777 -62.9048L135 45ZM94 66.5L-2.25901 5.42463L-230.728 365.508L146.943 167.461L94 66.5ZM135 45L171.777 -62.9048C144.985 -72.0363 121.567 -69.3384 110.198 -67.3916C96.9553 -65.1242 85.1716 -61.1504 75.6614 -57.3463L118 48.5L160.339 154.346C160.321 154.353 159.368 154.737 157.611 155.269C155.904 155.786 152.843 156.624 148.677 157.338C144.621 158.032 138.344 158.812 130.468 158.648C122.766 158.488 111.365 157.384 98.2229 152.905L135 45ZM118 48.5L75.6614 -57.3463C58.2924 -50.3987 43.9538 -41.0108 33.7692 -33.1399C25.5988 -26.8257 9.88938 -13.7221 -2.25901 5.42463L94 66.5L190.259 127.575C184.824 136.141 179.708 141.314 178.206 142.811C176.02 144.99 174.302 146.405 173.189 147.265C171.685 148.428 167.708 151.399 160.339 154.346L118 48.5ZM94 66.5L146.943 167.461L187.943 145.961L135 45L82.0572 -55.9607L41.0572 -34.4607L94 66.5Z" fill="black" mask="url(#path-22-inside-6_56_2414)"/>
<path d="M236.044 129.397C240.007 128.835 248.477 129.734 250.645 137.827" stroke="black" stroke-width="2.24803" stroke-linecap="round"/>
<path d="M149.483 130.521C145.52 129.959 137.05 130.858 134.882 138.951" stroke="black" stroke-width="2.24803" stroke-linecap="round"/>
<rect x="284.376" y="307.981" width="189.959" height="205.695" fill="#6A38F3"/>
<path d="M440.053 359.123V441.177H356.875V359.123H440.053Z" stroke="#6A38F3" stroke-width="144.998"/>
<mask id="path-28-inside-7_56_2414" fill="white">
<path d="M420.962 436.986C414.972 453.63 181.281 439.393 120.27 407.029L130.368 369.802C272.074 395.427 441.279 380.529 420.962 436.986Z"/>
</mask>
<path d="M120.27 407.029L-1.22932 374.071L-27.555 471.12L61.2769 518.241L120.27 407.029ZM420.962 436.986L539.415 479.613L539.415 479.613L420.962 436.986ZM130.368 369.802L152.77 245.921L39.1085 225.367L8.86908 336.844L130.368 369.802ZM120.27 407.029L61.2769 518.241C95.1129 536.19 138.064 545.757 169.373 551.516C205.05 558.079 244.459 562.835 280.873 565.847C317.069 568.84 353.327 570.359 382.687 569.74C396.681 569.444 413.265 568.601 428.836 566.094C435.979 564.944 448.88 562.547 463.031 557.025C470.131 554.255 482.066 548.982 494.801 539.525C507.096 530.394 527.929 511.532 539.415 479.613L420.962 436.986L302.508 394.358C313.621 363.48 333.634 345.598 344.689 337.387C356.185 328.85 366.46 324.439 371.505 322.47C381.545 318.553 388.752 317.525 388.812 317.515C390.218 317.289 387.087 317.811 377.376 318.016C359.328 318.397 332.226 317.454 301.625 314.924C271.241 312.411 240.413 308.58 214.926 303.891C202.183 301.547 192.046 299.219 184.65 297.132C176.213 294.752 175.562 293.854 179.263 295.817L120.27 407.029ZM420.962 436.986L539.415 479.613C551.993 444.661 554.148 398.626 528.715 355.257C506.987 318.207 474.678 300.12 456.303 291.738C420.711 275.502 378.393 269.903 350.647 266.748C277.138 258.389 219.947 258.069 152.77 245.921L130.368 369.802L107.966 493.682C182.495 507.16 280.76 512.203 322.2 516.916C351.929 520.296 356.959 523.16 351.807 520.81C348.652 519.37 327.336 509.582 311.527 482.624C292.012 449.347 295.01 415.196 302.508 394.359L420.962 436.986ZM130.368 369.802L8.86908 336.844L-1.22932 374.071L120.27 407.029L241.769 439.987L251.867 402.76L130.368 369.802Z" fill="#C6E700" mask="url(#path-28-inside-7_56_2414)"/>
<path d="M284.376 307.981H458.599H474.335M284.376 307.981L283.814 513.676H474.335M284.376 307.981L322.593 286.624H512.552M474.335 513.676V307.981M474.335 513.676L512.552 492.319V286.624M474.335 307.981L512.552 286.624" stroke="#C6E700" stroke-width="1.12402"/>
<mask id="path-31-inside-8_56_2414" fill="white">
<path d="M357.999 347.321V307.981L399.026 286.624H438.929L389.472 307.981V347.321L373.736 331.585L357.999 347.321Z"/>
</mask>
<path d="M357.999 307.981L318.037 231.21L271.45 255.46V307.981H357.999ZM357.999 347.321H271.45V556.27L419.199 408.521L357.999 347.321ZM373.736 331.585L434.935 270.385L373.736 209.186L312.536 270.385L373.736 331.585ZM389.472 347.321L328.272 408.521L476.021 556.27V347.321H389.472ZM389.472 307.981L355.161 228.523L302.923 251.08V307.981H389.472ZM438.929 286.624L473.24 366.082L438.929 200.075V286.624ZM399.026 286.624V200.075H377.848L359.063 209.854L399.026 286.624ZM357.999 307.981H271.45V347.321H357.999H444.549V307.981H357.999ZM357.999 347.321L419.199 408.521L434.935 392.785L373.736 331.585L312.536 270.385L296.8 286.122L357.999 347.321ZM373.736 331.585L312.536 392.785L328.272 408.521L389.472 347.321L450.671 286.122L434.935 270.385L373.736 331.585ZM389.472 347.321H476.021V307.981H389.472H302.923V347.321H389.472ZM389.472 307.981L423.783 387.438L473.24 366.082L438.929 286.624L404.617 207.167L355.161 228.523L389.472 307.981ZM438.929 286.624V200.075H399.026V286.624V373.174H438.929V286.624ZM399.026 286.624L359.063 209.854L318.037 231.21L357.999 307.981L397.962 384.751L438.989 363.395L399.026 286.624Z" fill="#C6E700" mask="url(#path-31-inside-8_56_2414)"/>
<mask id="path-33-inside-9_56_2414" fill="white">
<path d="M84 666C84 666 69.9991 663.545 78.4292 565.381H289.744C293.304 645.337 289.744 666 289.744 666H84Z"/>
</mask>
<path d="M78.4292 565.381V405.77H-68.0617L-80.5959 551.724L78.4292 565.381ZM84 666L56.4305 823.211L70.1109 825.61H84V666ZM289.744 565.381L449.197 558.282L442.408 405.77H289.744V565.381ZM289.744 666V825.61H424.211L447.038 693.096L289.744 666ZM78.4292 565.381L-80.5959 551.724C-85.1691 604.976 -85.3423 647.586 -78.7554 682.276C-75.4812 699.52 -68.5208 726.237 -50.6907 752.872C-41.1891 767.065 -27.6182 782.683 -8.68862 796.058C0.76223 802.735 11.1431 808.559 22.3575 813.24C27.9296 815.566 33.5951 817.563 39.3238 819.232C42.1831 820.065 45.0435 820.811 47.9006 821.475C49.3285 821.806 50.754 822.116 52.1763 822.406C52.8875 822.55 53.5976 822.69 54.3067 822.824C54.661 822.891 55.1924 822.989 55.3695 823.022C55.8998 823.117 56.4305 823.211 84 666C111.57 508.789 112.1 508.883 112.63 508.978C112.807 509.011 113.338 509.109 113.692 509.176C114.4 509.31 115.109 509.449 115.819 509.593C117.238 509.882 118.658 510.191 120.079 510.521C122.923 511.181 125.763 511.923 128.596 512.748C134.273 514.401 139.861 516.373 145.332 518.657C156.346 523.255 166.434 528.929 175.518 535.348C193.715 548.205 206.258 562.864 214.579 575.293C230.047 598.4 234.034 618.368 234.862 622.727C236.556 631.649 233.597 623.949 237.454 579.037L78.4292 565.381ZM289.744 565.381L130.292 572.479C131.948 609.689 131.838 630.766 131.537 640.992C131.389 646.046 131.207 648.016 131.239 647.646C131.257 647.44 131.337 646.559 131.519 645.109C131.61 644.379 131.729 643.491 131.881 642.459C131.958 641.942 132.043 641.386 132.137 640.794C132.184 640.498 132.234 640.192 132.286 639.877C132.312 639.72 132.339 639.56 132.366 639.398C132.38 639.317 132.394 639.235 132.408 639.153C132.415 639.112 132.426 639.05 132.429 639.029C132.44 638.967 132.451 638.904 289.744 666C447.038 693.096 447.049 693.033 447.06 692.97C447.063 692.95 447.074 692.887 447.081 692.845C447.095 692.762 447.109 692.678 447.124 692.595C447.152 692.427 447.18 692.26 447.208 692.092C447.263 691.757 447.318 691.42 447.372 691.082C447.48 690.407 447.584 689.726 447.686 689.038C447.888 687.664 448.08 686.254 448.262 684.803C448.624 681.911 448.955 678.791 449.251 675.398C449.839 668.656 450.324 660.462 450.621 650.356C451.211 630.262 451.1 601.029 449.197 558.282L289.744 565.381ZM289.744 666V506.39H84V666V825.61H289.744V666ZM78.4292 565.381V724.991H289.744V565.381V405.77H78.4292V565.381Z" fill="#6A38F3" mask="url(#path-33-inside-9_56_2414)"/>
<path d="M256.586 581.679C257.71 591.811 264.117 613.19 280.752 617.647" stroke="black" stroke-width="2.24803"/>
<path d="M125.638 582.241C124.514 592.373 118.107 613.752 101.472 618.209" stroke="black" stroke-width="2.24803"/>
<mask id="path-37-inside-10_56_2414" fill="white">
<path d="M482.203 497.94V466.058L506.932 454.103V484.792L482.203 497.94Z"/>
</mask>
<path d="M482.203 466.058L440.617 380.042L386.662 406.128V466.058H482.203ZM482.203 497.94H386.662V656.943L527.055 582.299L482.203 497.94ZM506.932 484.792L551.784 569.151L602.473 542.201V484.792H506.932ZM506.932 454.103H602.473V301.79L465.345 368.087L506.932 454.103ZM482.203 466.058H386.662V497.94H482.203H577.745V466.058H482.203ZM482.203 497.94L527.055 582.299L551.784 569.151L506.932 484.792L462.08 400.433L437.351 413.58L482.203 497.94ZM506.932 484.792H602.473V454.103H506.932H411.39V484.792H506.932ZM506.932 454.103L465.345 368.087L440.617 380.042L482.203 466.058L523.79 552.074L548.518 540.119L506.932 454.103Z" fill="#F6F3E4" mask="url(#path-37-inside-10_56_2414)"/>
<rect x="370.926" y="396.778" width="62.945" height="47.2087" fill="#C6E700"/>
<mask id="path-40-inside-11_56_2414" fill="white">
<path d="M465.711 405.77H432.747L433.369 396.778H464.467C477.405 400.119 471.102 404.165 465.711 405.77Z"/>
</mask>
<path d="M432.747 405.77L347.525 399.875L341.208 491.195H432.747V405.77ZM465.711 405.77V491.195H478.161L490.093 487.642L465.711 405.77ZM464.467 396.778L485.828 314.066L475.32 311.353H464.467V396.778ZM433.369 396.778V311.353H353.648L348.147 390.883L433.369 396.778ZM432.747 405.77V491.195H465.711V405.77V320.345H432.747V405.77ZM465.711 405.77L490.093 487.642C495.726 485.965 503.647 483.111 512.088 478.274C516.245 475.891 540.018 462.684 551.603 432.826C558.897 414.026 560.079 391.413 551.519 369.539C543.821 349.865 531 337.797 522.741 331.487C507.627 319.939 491.964 315.651 485.828 314.066L464.467 396.778L443.107 479.489C442.096 479.228 439.506 478.517 435.995 477.075C432.818 475.77 426.333 472.839 419.014 467.246C411.9 461.811 399.779 450.614 392.416 431.797C384.192 410.78 385.344 389.009 392.322 371.024C403.274 342.796 425.269 331.11 427.133 330.042C433.28 326.519 438.392 324.773 441.33 323.898L465.711 405.77ZM464.467 396.778V311.353H433.369V396.778V482.203H464.467V396.778ZM433.369 396.778L348.147 390.883L347.525 399.875L432.747 405.77L517.968 411.665L518.59 402.673L433.369 396.778Z" fill="#C6E700" mask="url(#path-40-inside-11_56_2414)"/>
<mask id="path-42-inside-12_56_2414" fill="white">
<path d="M468.537 419.258H432.747L433.422 410.266H467.186C481.232 413.607 474.389 417.653 468.537 419.258Z"/>
</mask>
<path d="M432.747 419.258L347.561 412.861L340.666 504.684H432.747V419.258ZM468.537 419.258V504.684H480.04L491.133 501.641L468.537 419.258ZM467.186 410.266L486.955 327.16L477.206 324.841H467.186V410.266ZM433.422 410.266V324.841H354.171L348.236 403.869L433.422 410.266ZM432.747 419.258V504.684H468.537V419.258V333.833H432.747V419.258ZM468.537 419.258L491.133 501.641C496.58 500.147 504.33 497.583 512.649 493.192C516.824 490.988 523.097 487.304 529.739 481.654C535.818 476.481 546.787 465.815 554.049 448.577C562.475 428.575 563.863 404.08 553.953 380.753C545.31 360.408 531.329 348.638 523.309 342.995C508.292 332.427 492.95 328.586 486.955 327.16L467.186 410.266L447.418 493.373C446.728 493.209 444.476 492.65 441.286 491.443C438.468 490.377 432.219 487.808 424.983 482.715C418.206 477.946 404.985 467.047 396.706 447.56C387.159 425.09 388.516 401.437 396.598 382.249C403.517 365.826 413.831 355.948 419.032 351.524C424.793 346.622 429.961 343.647 432.891 342.1C438.72 339.024 443.42 337.567 445.941 336.876L468.537 419.258ZM467.186 410.266V324.841H433.422V410.266V495.691H467.186V410.266ZM433.422 410.266L348.236 403.869L347.561 412.861L432.747 419.258L517.932 425.656L518.607 416.663L433.422 410.266Z" fill="#C6E700" mask="url(#path-42-inside-12_56_2414)"/>
<mask id="path-44-inside-13_56_2414" fill="white">
<path d="M465.529 431.623H431.623L432.262 422.63H464.25C477.556 425.971 471.074 430.017 465.529 431.623Z"/>
</mask>
<path d="M431.623 431.623L346.413 425.56L339.904 517.048H431.623V431.623ZM465.529 431.623V517.048H477.647L489.286 513.678L465.529 431.623ZM464.25 422.63L485.053 339.777L474.81 337.205H464.25V422.63ZM432.262 422.63V337.205H352.699L347.052 416.568L432.262 422.63ZM431.623 431.623V517.048H465.529V431.623V346.197H431.623V431.623ZM465.529 431.623L489.286 513.678C494.853 512.066 502.717 509.315 511.12 504.633C514.95 502.499 539.299 489.509 551.299 459.441C558.965 440.233 560.214 416.991 551.211 394.624C543.195 374.707 529.974 362.728 521.783 356.644C506.691 345.433 491.132 341.303 485.053 339.777L464.25 422.63L443.447 505.484C442.545 505.258 440.07 504.601 436.667 503.242C433.613 502.022 427.202 499.217 419.903 493.795C412.889 488.584 400.389 477.477 392.717 458.417C384.06 436.907 385.278 414.507 392.618 396.114C403.968 367.676 426.488 356.207 427.96 355.387C434.003 352.02 438.978 350.376 441.772 349.567L465.529 431.623ZM464.25 422.63V337.205H432.262V422.63V508.056H464.25V422.63ZM432.262 422.63L347.052 416.568L346.413 425.56L431.623 431.623L516.832 437.685L517.472 428.693L432.262 422.63Z" fill="#C6E700" mask="url(#path-44-inside-13_56_2414)"/>
<mask id="path-46-inside-14_56_2414" fill="white">
<path d="M460.82 443.987H431.623L432.173 434.995H459.718C471.177 438.336 465.594 442.381 460.82 443.987Z"/>
</mask>
<path d="M431.623 443.987L346.357 438.763L340.804 529.412H431.623V443.987ZM460.82 443.987V529.412H474.796L488.044 524.958L460.82 443.987ZM459.718 434.995L483.631 352.984L471.918 349.569H459.718V434.995ZM432.173 434.995V349.569H351.821L346.908 429.771L432.173 434.995ZM431.623 443.987V529.412H460.82V443.987V358.561H431.623V443.987ZM460.82 443.987L488.044 524.958C493.988 522.959 502.134 519.625 510.681 514.094C516.103 510.586 537.285 496.593 547.144 467.905C553.015 450.823 553.945 430.729 547.076 410.91C540.669 392.424 529.562 380.117 521.195 372.9C506.136 359.91 490.109 354.873 483.631 352.984L459.718 434.995L435.806 517.005C435.056 516.786 422.629 513.509 409.597 502.267C402.243 495.923 391.756 484.489 385.646 466.859C379.074 447.897 379.978 428.645 385.569 412.378C394.867 385.32 414.475 372.848 417.865 370.654C424.381 366.438 430.039 364.211 433.596 363.016L460.82 443.987ZM459.718 434.995V349.569H432.173V434.995V520.42H459.718V434.995ZM432.173 434.995L346.908 429.771L346.357 438.763L431.623 443.987L516.888 449.21L517.439 440.218L432.173 434.995Z" fill="#C6E700" mask="url(#path-46-inside-14_56_2414)"/>
<path d="M251.362 338.625C249.972 338.913 248.818 340.275 248.763 341.658C248.753 342.003 248.802 342.324 248.921 342.632L249.271 343.485C249.315 343.664 249.201 343.884 248.997 343.977C248.863 344.072 248.725 344.025 248.633 343.927L248.088 343.236C247.659 342.711 246.97 342.461 246.214 342.58C244.829 342.795 243.607 344.112 243.481 345.508C243.424 346.119 243.584 346.663 243.921 347.089L244.471 347.708L244.485 347.705C244.587 347.873 244.528 348.113 244.362 348.256C244.226 348.38 244.055 348.411 243.948 348.329L243.232 347.855C242.772 347.564 242.2 347.464 241.613 347.582C240.239 347.853 239.057 349.206 238.987 350.606C238.948 351.371 239.269 352.03 239.836 352.402L240.606 352.895C240.753 353.012 240.737 353.244 240.556 353.405C240.506 353.462 240.443 353.507 240.375 353.531C240.308 353.556 240.239 353.56 240.18 353.543L240.165 353.545L239.322 353.293C239.002 353.221 238.679 353.192 238.337 353.238C236.967 353.437 235.732 354.742 235.591 356.154C235.518 357.197 236.023 358.052 236.939 358.291L252.71 362.762L259.738 354.957L253.643 339.739C253.31 338.84 252.366 338.405 251.362 338.625ZM252.134 344.354C252.735 344.234 253.254 344.485 253.444 344.995L257.113 354.133L251.864 349.422L250.748 346.601C250.383 345.764 251.116 344.562 252.134 344.354ZM247.165 349.164C247.551 349.096 247.899 349.178 248.15 349.419L254.54 355.173C255.074 355.623 255.024 356.532 254.44 357.208C253.828 357.888 252.941 358.059 252.382 357.571L245.991 351.817C245.865 351.71 245.767 351.572 245.704 351.411C245.641 351.25 245.614 351.069 245.624 350.879C245.635 350.689 245.683 350.494 245.766 350.306C245.848 350.117 245.964 349.938 246.106 349.78C246.397 349.442 246.779 349.232 247.165 349.164ZM242.94 354.658C243.126 354.625 243.322 354.648 243.46 354.695L246.41 355.519L251.645 360.233L242.145 357.545C240.731 357.165 241.37 354.892 242.94 354.658ZM261.35 356.948L254.858 364.158L255.988 365.174C256.998 366.069 258.542 366.212 260.042 365.561C260.781 365.233 261.469 364.728 262.039 364.095C262.608 363.463 263.039 362.726 263.288 361.956C263.778 360.396 263.475 358.876 262.479 357.964L261.35 356.948Z" fill="white"/>
<mask id="path-49-inside-15_56_2414" fill="white">
<path d="M494.46 479.217L483.327 485.388L488.894 474.049L494.46 479.217Z"/>
</mask>
<path d="M494.46 479.217L483.327 485.388L488.894 474.049L494.46 479.217Z" fill="#C6E700"/>
<path d="M483.327 485.388L431.785 468.516L350.946 633.186L483.327 559.806V485.388ZM494.46 479.217V553.634L626.841 480.255L546.003 405.203L494.46 479.217ZM488.894 474.049L540.436 400.035L488.894 352.183L437.351 457.176L488.894 474.049ZM483.327 485.388V559.806L494.46 553.634V479.217V404.799L483.327 410.971V485.388ZM494.46 479.217L546.003 405.203L540.436 400.035L488.894 474.049L437.351 548.062L442.918 553.23L494.46 479.217ZM488.894 474.049L437.351 457.176L431.785 468.516L483.327 485.388L534.87 502.261L540.436 490.921L488.894 474.049Z" fill="#C6E700" mask="url(#path-49-inside-15_56_2414)"/>
<rect width="4.89589" height="8.25379" transform="matrix(0.87462 -0.48481 0 1 486.753 483.489)" fill="#C6E700"/>
<mask id="path-52-inside-16_56_2414" fill="white">
<path d="M506.825 472.473L495.691 478.644L501.258 467.305L506.825 472.473Z"/>
</mask>
<path d="M506.825 472.473L495.691 478.644L501.258 467.305L506.825 472.473Z" fill="white"/>
<path d="M495.691 478.644L444.149 461.772L363.311 626.442L495.691 553.062V478.644ZM506.825 472.473V546.89L639.206 473.511L558.367 398.459L506.825 472.473ZM501.258 467.305L552.801 393.291L501.258 345.439L449.716 450.432L501.258 467.305ZM495.691 478.644V553.062L506.825 546.89V472.473V398.055L495.691 404.227V478.644ZM506.825 472.473L558.367 398.459L552.801 393.291L501.258 467.305L449.716 541.318L455.282 546.486L506.825 472.473ZM501.258 467.305L449.716 450.432L444.149 461.772L495.691 478.644L547.234 495.517L552.801 484.177L501.258 467.305Z" fill="white" mask="url(#path-52-inside-16_56_2414)"/>
<rect x="0.428204" y="0.252232" width="3.91671" height="7.27461" transform="matrix(0.87462 -0.48481 0 1 499.171 476.953)" fill="white" stroke="white" stroke-width="0.979178"/>
<mask id="path-55-inside-17_56_2414" fill="white">
<path d="M274 61C285.5 71.7609 319.1 95.913 331.5 89.6957C327.719 94.0983 324.524 96.2818 321.609 97.0256C326.869 101.185 332.907 105.574 339.5 108.826L319.5 116L274 61Z"/>
</mask>
<path d="M321.609 97.0256L335.703 152.256L447.32 123.774L356.967 52.3173L321.609 97.0256ZM300.5 87.9022L244.325 78.2376L236.99 120.872L276.08 139.406L300.5 87.9022ZM321.609 97.0256L307.516 41.7954C316.548 39.4907 325.003 40.1691 331.596 41.9865C337.281 43.5536 340.832 45.7745 341.017 45.8867C341.244 46.0238 341.209 46.0122 340.532 45.5618C340.231 45.3618 338.638 44.2924 337.576 43.5961C334.993 41.9027 330.529 39.0578 324.92 36.3981L300.5 87.9022L276.08 139.406C274.67 138.737 274.042 138.259 275.077 138.937C275.824 139.426 275.985 139.544 277.403 140.487C278.443 141.179 280.09 142.265 281.979 143.408C288.581 147.405 308.991 159.072 335.703 152.256L321.609 97.0256ZM300.5 87.9022L356.675 97.5667C356.122 100.781 354.44 108.684 348.639 117.312C341.861 127.393 330.687 136.455 315.844 139.959C302.814 143.035 292.352 140.528 287.508 138.995C282.443 137.392 279.054 135.425 277.968 134.776C275.972 133.585 275.32 132.897 277.806 134.897C278.773 135.675 283.412 139.488 286.252 141.734L321.609 97.0256L356.967 52.3173C353.911 49.9004 353.145 49.1955 349.273 46.0803C346.92 44.1872 341.999 40.2309 336.379 36.8779C333.481 35.1486 328.442 32.3764 321.898 30.3059C315.576 28.3055 303.807 25.6672 289.652 29.0087C253.685 37.4994 245.749 69.9604 244.325 78.2376L300.5 87.9022ZM339.5 108.826L359.278 162.285C365.025 160.159 369.826 157.333 373.7 154.431C377.533 151.56 380.506 148.58 382.748 145.976C384.99 143.371 386.703 140.906 387.981 138.849C389.268 136.779 390.26 134.888 391.013 133.313C391.771 131.728 392.366 130.296 392.829 129.09C393.293 127.878 393.666 126.784 393.961 125.853C394.54 124.028 394.932 122.475 395.187 121.372C395.449 120.241 395.636 119.28 395.764 118.577C395.894 117.863 395.99 117.261 396.055 116.83C396.122 116.396 396.172 116.038 396.202 115.817C396.231 115.607 396.255 115.417 396.259 115.391C396.269 115.317 396.257 115.403 396.242 115.514C396.226 115.636 396.189 115.895 396.138 116.233C396.087 116.568 396.005 117.077 395.892 117.701C395.78 118.313 395.61 119.187 395.367 120.235C395.13 121.255 394.758 122.724 394.204 124.47C393.922 125.361 393.563 126.413 393.114 127.584C392.668 128.748 392.092 130.135 391.358 131.674C390.629 133.203 389.668 135.041 388.423 137.056C387.186 139.06 385.531 141.46 383.367 144.003C381.204 146.545 378.34 149.459 374.649 152.287C370.923 155.143 366.292 157.958 360.73 160.129L340 107.033L319.27 53.9358C313.69 56.1143 309.043 58.9382 305.3 61.8067C301.594 64.6475 298.714 67.5761 296.536 70.1357C294.357 72.697 292.688 75.117 291.437 77.1431C290.178 79.1808 289.204 81.0438 288.462 82.5996C287.715 84.1654 287.126 85.5819 286.668 86.7767C286.208 87.9782 285.838 89.0633 285.544 89.9898C285.248 90.9205 285.007 91.7623 284.812 92.4889C284.616 93.218 284.453 93.879 284.32 94.4541C284.058 95.584 283.869 96.5462 283.741 97.2518C283.61 97.9682 283.513 98.574 283.447 99.0086C283.38 99.4463 283.329 99.8086 283.298 100.034C283.269 100.249 283.243 100.441 283.239 100.472C283.229 100.552 283.24 100.468 283.254 100.362C283.27 100.245 283.306 99.9889 283.357 99.6548C283.407 99.324 283.488 98.8178 283.6 98.1965C283.711 97.5863 283.881 96.7126 284.124 95.6642C284.247 95.1298 284.4 94.5069 284.586 93.8134C284.771 93.1226 285.003 92.313 285.288 91.4114C285.573 90.5142 285.934 89.4532 286.387 88.2718C286.837 87.0974 287.421 85.6935 288.166 84.135C288.906 82.5871 289.885 80.7202 291.158 78.6727C292.422 76.6375 294.12 74.1927 296.348 71.6047C298.575 69.0178 301.533 66.0528 305.35 63.1932C309.208 60.3032 313.993 57.487 319.722 55.3672L339.5 108.826ZM274 61L351.891 -22.2408L186.162 133.666L274 61ZM331.5 89.6957L417.988 163.964L280.403 -12.2118L331.5 89.6957ZM321.609 97.0256L293.422 -13.4348L70.1876 43.5296L250.894 186.442L321.609 97.0256ZM339.5 108.826L377.99 216.132L630.863 125.428L389.93 6.58691L339.5 108.826ZM319.5 116L231.662 188.666L282.669 250.323L357.99 223.306L319.5 116ZM274 61L196.109 144.241C208.225 155.578 226.454 169.444 245.209 180.324C254.511 185.72 268.674 193.178 285.434 198.325C296.198 201.631 337.967 213.981 382.597 191.603L331.5 89.6957L280.403 -12.2118C301.245 -22.6618 320.095 -23.6422 330.566 -23.2171C341.221 -22.7844 348.926 -20.686 352.369 -19.6286C358.982 -17.5977 361.701 -15.6848 359.616 -16.8943C355.596 -19.2266 351.275 -22.8172 351.891 -22.2408L274 61ZM331.5 89.6957L245.012 15.4272C248.029 11.9138 263.679 -5.84501 293.422 -13.4348L321.609 97.0256L349.796 207.486C385.369 198.409 407.41 176.283 417.988 163.964L331.5 89.6957ZM321.609 97.0256L250.894 186.442C258.164 192.192 271.643 202.469 289.07 211.065L339.5 108.826L389.93 6.58691C391.199 7.21306 392.158 7.75344 392.79 8.12776C393.423 8.50272 393.812 8.76204 393.936 8.84626C394.062 8.93094 393.997 8.89129 393.708 8.67712C393.419 8.46175 392.978 8.12551 392.325 7.60907L321.609 97.0256ZM339.5 108.826L301.01 1.52038L281.01 8.69429L319.5 116L357.99 223.306L377.99 216.132L339.5 108.826ZM319.5 116L407.338 43.3336L361.838 -11.6664L274 61L186.162 133.666L231.662 188.666L319.5 116Z" fill="black" mask="url(#path-55-inside-17_56_2414)"/>
<mask id="path-57-inside-18_56_2414" fill="white">
<path d="M221.857 55.6833C221.106 80.2731 230.553 128.73 274.351 125.838C259.908 122.426 229.19 103.617 221.857 55.6833Z"/>
</mask>
<path d="M221.857 55.6833L334.546 38.4445L107.911 52.2015L221.857 55.6833ZM274.351 125.838L281.861 239.591L300.566 14.8934L274.351 125.838ZM221.857 55.6833L107.911 52.2015C107.163 76.6765 110.663 116.142 130.347 153.836C140.871 173.99 158.192 197.627 185.927 215.454C214.964 234.117 248.337 241.804 281.861 239.591L274.351 125.838L266.841 12.0859C278.465 11.3184 294.233 14.0326 309.204 23.6551C322.874 32.4409 329.667 42.9691 332.449 48.2966C335.156 53.4805 335.684 56.6996 335.7 56.7892C335.75 57.0578 335.855 57.5128 335.804 59.1651L221.857 55.6833ZM274.351 125.838L300.566 14.8934C309.881 17.0946 316 20.1958 319.409 22.2258C323.302 24.5438 326.338 27.0627 328.695 29.5826C334.167 35.4325 334.777 39.95 334.546 38.4445L221.857 55.6833L109.168 72.9222C123.715 168.01 189.667 222.967 248.135 236.783L274.351 125.838Z" fill="black" mask="url(#path-57-inside-18_56_2414)"/>
<mask id="path-59-inside-19_56_2414" fill="white">
<path d="M53 82.5645C78.1244 81.5205 115.232 52.7093 128 49.5L106.15 90.5L53 82.5645Z"/>
</mask>
<path d="M128 49.5L228.605 103.116L349.495 -123.723L100.209 -61.0606L128 49.5ZM53 82.5645L48.2672 -31.3372L36.1659 195.315L53 82.5645ZM106.15 90.5L89.3155 203.25L168.907 215.134L206.754 144.116L106.15 90.5ZM128 49.5L100.209 -61.0606C87.4086 -57.8431 77.2568 -53.1081 72.8151 -50.9763C67.3438 -48.3504 62.3387 -45.6116 58.7912 -43.628C55.1846 -41.6113 51.2982 -39.3642 48.4443 -37.7227C45.2716 -35.8978 42.6073 -34.3758 40.0473 -32.9629C34.5898 -29.9508 31.8854 -28.7192 31.0147 -28.3693C29.072 -27.5886 35.889 -30.8229 48.2672 -31.3372L53 82.5645L57.7328 196.466C82.6733 195.43 103.55 188.203 116.031 183.187C129.583 177.741 141.664 171.374 150.22 166.651C154.667 164.197 158.817 161.818 162.123 159.916C165.747 157.832 168.005 156.527 170.065 155.375C172.184 154.19 172.369 154.143 171.469 154.575C170.936 154.831 169.462 155.526 167.282 156.389C165.265 157.187 161.244 158.69 155.791 160.061L128 49.5ZM53 82.5645L36.1659 195.315L89.3155 203.25L106.15 90.5L122.984 -22.2502L69.8341 -30.1857L53 82.5645ZM106.15 90.5L206.754 144.116L228.605 103.116L128 49.5L27.3952 -4.11596L5.5448 36.884L106.15 90.5Z" fill="black" mask="url(#path-59-inside-19_56_2414)"/>
<mask id="path-61-inside-20_56_2414" fill="white">
<path d="M30.5 118C51.8694 112.098 73.9591 74.6811 91 77L69.1496 118H30.5Z"/>
</mask>
<path d="M91 77L191.605 130.616L268.612 -13.8808L106.372 -35.9589L91 77ZM30.5 118L0.151659 8.11381L30.5 232V118ZM69.1496 118V232H137.574L169.754 171.616L69.1496 118ZM91 77L106.372 -35.9589C58.8506 -42.4256 24.1316 -20.0855 13.1366 -12.5879C-0.408211 -3.3516 -11.7774 7.62103 -16.1216 11.7458C-19.4171 14.8748 -20.9622 16.3695 -22.8761 18.1402C-24.5584 19.6965 -25.0964 20.123 -24.9243 19.9844C-24.8098 19.8921 -22.8763 18.3202 -19.4144 16.2767C-16.0265 14.2768 -9.36435 10.7419 0.151659 8.11381L30.5 118L60.8483 227.886C75.7067 223.783 87.7337 217.787 96.4865 212.621C105.313 207.41 112.611 201.965 118.068 197.571C123.583 193.131 128.364 188.828 131.957 185.505C135.317 182.396 139.002 178.861 140.868 177.089C143.278 174.8 144.366 173.808 144.949 173.299C145.586 172.744 144.298 173.937 141.589 175.784C139.11 177.475 132.604 181.687 122.712 185.218C112.429 188.889 95.904 192.718 75.6283 189.959L91 77ZM30.5 118V232H69.1496V118V4.00002H30.5V118ZM69.1496 118L169.754 171.616L191.605 130.616L91 77L-9.60481 23.384L-31.4552 64.384L69.1496 118Z" fill="black" mask="url(#path-61-inside-20_56_2414)"/>
<mask id="path-63-inside-21_56_2414" fill="white">
<path d="M63 133.202C87.258 131.479 100.242 129.207 122.162 122.603L86.9065 121.089C80.8589 128.322 73.7226 129.527 63 133.202Z"/>
</mask>
<path d="M122.162 122.603L155.047 231.757L127.053 8.70769L122.162 122.603ZM63 133.202L26.0389 25.3598L71.0745 246.915L63 133.202ZM86.9065 121.089L91.7977 7.19364L35.5532 4.77822L-0.555169 47.9692L86.9065 121.089ZM122.162 122.603L89.2769 13.4489C76.1773 17.3954 71.5824 18.3053 54.9254 19.4881L63 133.202L71.0745 246.915C102.934 244.653 124.307 241.018 155.047 231.757L122.162 122.603ZM63 133.202L99.961 241.044C101.733 240.437 101.492 240.552 105.839 239.13C108.763 238.174 114.832 236.171 121.651 233.246C137.978 226.242 157.347 214.568 174.368 194.208L86.9065 121.089L-0.555169 47.9692C4.24584 42.2265 9.99195 36.8828 16.5059 32.2973C22.8185 27.8535 28.3717 25.1678 31.7617 23.7135C34.7004 22.4528 36.5964 21.8923 34.9776 22.4217C34.7823 22.4855 29.6287 24.1295 26.0389 25.3598L63 133.202ZM86.9065 121.089L82.0153 234.984L117.271 236.498L122.162 122.603L127.053 8.70769L91.7977 7.19364L86.9065 121.089Z" fill="black" mask="url(#path-63-inside-21_56_2414)"/>
<mask id="path-65-inside-22_56_2414" fill="white">
<path d="M318.29 131.202C303.172 127.903 294.992 124.802 281 116.83L302.706 117.653C306.923 125.203 311.416 126.863 318.29 131.202Z"/>
</mask>
<path d="M281 116.83L224.57 215.884L285.318 2.9122L281 116.83ZM318.29 131.202L379.139 34.7998L293.983 242.58L318.29 131.202ZM302.706 117.653L307.024 3.73498L371.012 6.16049L402.236 62.0664L302.706 117.653ZM281 116.83L337.43 17.7766C341.672 20.1935 341.746 19.9813 340.114 19.3542C339.379 19.072 338.927 18.9457 339.053 18.9812C339.306 19.0526 340.297 19.3214 342.596 19.8231L318.29 131.202L293.983 242.58C267.518 236.805 248.515 229.526 224.57 215.884L281 116.83ZM318.29 131.202L257.44 227.604C257.542 227.668 257.481 227.627 256.984 227.328C256.94 227.301 255.23 226.276 254.33 225.729C252.023 224.327 246.676 221.056 240.664 216.502C225.799 205.241 213.091 190.992 203.177 173.24L302.706 117.653L402.236 62.0664C399.88 57.8488 396.504 52.7262 391.843 47.385C387.106 41.9579 382.341 37.7928 378.339 34.7614C374.836 32.1078 372.165 30.5379 372.766 30.9034C373.319 31.2399 373.121 31.1148 374.655 32.0394C375.735 32.6904 377.319 33.6507 379.139 34.7998L318.29 131.202ZM302.706 117.653L298.388 231.571L276.682 230.749L281 116.83L285.318 2.9122L307.024 3.73498L302.706 117.653Z" fill="black" mask="url(#path-65-inside-22_56_2414)"/>
<mask id="path-67-inside-23_56_2414" fill="white">
<path d="M189.144 2.24805C148.444 2.24803 137.367 41.4685 138.308 55.0768H239.416C235.65 35.1041 231.508 2.24806 189.144 2.24805Z"/>
</mask>
<path d="M138.308 55.0768L-35.4988 67.1006L-24.2781 229.299H138.308V55.0768ZM189.144 2.24805L189.145 -171.975L189.144 2.24805ZM239.416 55.0768V229.299H449.555L410.622 22.7979L239.416 55.0768ZM138.308 55.0768L312.116 43.0531C313.58 64.2187 310.277 79.4487 308.082 87.4074C305.396 97.1437 300.8 108.716 292.675 120.795C284.281 133.275 270.878 148.017 250.91 159.528C230.1 171.524 208.222 176.471 189.144 176.471L189.144 2.24805L189.145 -171.975C102.236 -171.975 38.567 -125.742 3.5468 -73.6762C-24.7636 -31.5859 -38.7716 19.7919 -35.4988 67.1006L138.308 55.0768ZM189.144 2.24805L189.144 176.471C176.983 176.471 156.089 173.992 132.793 161.653C108.856 148.974 92.152 131.058 81.6813 114.57C72.1863 99.6183 68.6395 87.2019 67.6567 83.5383C67.0223 81.1733 66.376 77.6317 68.2094 87.3558L239.416 55.0768L410.622 22.7979C410.573 22.5356 407.996 7.39725 404.202 -6.74563C400.06 -22.187 392.124 -46.5624 375.827 -72.2248C358.555 -99.4236 332.636 -126.802 295.89 -146.265C259.785 -165.389 222.488 -171.975 189.145 -171.975L189.144 2.24805ZM239.416 55.0768V-119.146H138.308V55.0768V229.299H239.416V55.0768Z" fill="black" mask="url(#path-67-inside-23_56_2414)"/>
<path d="M209.042 20.8223C226.017 9.10142 246.106 0.0764904 268.779 1.22266C278.863 1.73242 285.197 4.30008 288.683 7.97754C292.12 11.6044 292.988 16.5296 291.64 22.29C288.936 33.8392 277.416 48.1502 261.688 59.5518L170.154 54.4902C180.024 45.1229 193.1 31.8301 209.042 20.8223Z" fill="black" stroke="#F6F3E4" stroke-width="2.24803" stroke-linecap="round"/>
<path d="M170 54.5H138" stroke="#F6F3E4" stroke-width="2"/>
</svg>
